{
  "accessors": [
    {
      "bufferView": 0,
      "componentType": 5126,
      "count": 474,
      "type": "VEC3",
      "max": [
        0.8037603497505188,
        0.81561279296875,
        2.8830790519714355
      ],
      "min": [
        -0.8037603497505188,
        -0.815613329410553,
        -2.8830790519714355
      ]
    },
    {
      "bufferView": 1,
      "componentType": 5126,
      "count": 474,
      "type": "VEC3",
      "max": [
        0.99308633804321289,
        1.0,
        1.0
      ],
      "min": [
        -0.99308633804321289,
        -1.0,
        -1.0
      ]
    },
    {
      "bufferView": 2,
      "componentType": 5126,
      "count": 474,
      "type": "VEC4",
      "max": [
        1.0,
        0.37074422836303711,
        1.0,
        1.0
      ],
      "min": [
        -1.0,
        -1.0,
        -1.0,
        -1.0
      ]
    },
    {
      "bufferView": 3,
      "componentType": 5126,
      "count": 474,
      "type": "VEC2",
      "max": [
        0.99185121059417725,
        0.991395890712738
      ],
      "min": [
        0.00798529852181673,
        0.0086581110954284668
      ]
    },
    {
      "bufferView": 4,
      "componentType": 5123,
      "count": 1182,
      "type": "SCALAR",
      "max": [
        473.0
      ],
      "min": [
        0.0
      ]
    },
    {
      "bufferView": 5,
      "componentType": 5126,
      "count": 958,
      "type": "VEC3",
      "max": [
        0.66038715839385986,
        1.0205549001693726,
        2.3834235668182373
      ],
      "min": [
        -0.66038709878921509,
        -1.0205537080764771,
        -2.3834238052368164
      ]
    },
    {
      "bufferView": 6,
      "componentType": 5126,
      "count": 958,
      "type": "VEC3",
      "max": [
        1.0,
        1.0,
        1.0
      ],
      "min": [
        -1.0,
        -1.0,
        -1.0
      ]
    },
    {
      "bufferView": 7,
      "componentType": 5126,
      "count": 958,
      "type": "VEC4",
      "max": [
        1.0,
        1.0,
        1.0,
        1.0
      ],
      "min": [
        -1.0,
        -1.0,
        -1.0,
        -1.0
      ]
    },
    {
      "bufferView": 8,
      "componentType": 5126,
      "count": 958,
      "type": "VEC2",
      "max": [
        1.9987843036651611,
        0.9989626407623291
      ],
      "min": [
        0.0010678879916667938,
        0.0012277960777282715
      ]
    },
    {
      "bufferView": 9,
      "componentType": 5123,
      "count": 3348,
      "type": "SCALAR",
      "max": [
        957.0
      ],
      "min": [
        0.0
      ]
    },
    {
      "bufferView": 10,
      "componentType": 5126,
      "count": 32,
      "type": "VEC3",
      "max": [
        0.53263610601425171,
        0.78334647417068481,
        1.3040448720857967E-06
      ],
      "min": [
        -0.53263610601425171,
        -0.78334647417068481,
        -1.2981882946405676E-06
      ]
    },
    {
      "bufferView": 11,
      "componentType": 5126,
      "count": 32,
      "type": "VEC3",
      "max": [
        3.8960536130616674E-07,
        1.5531741155427881E-06,
        -1.0
      ],
      "min": [
        3.0680610052513657E-07,
        1.5221003195620142E-06,
        -1.0
      ]
    },
    {
      "bufferView": 12,
      "componentType": 5126,
      "count": 32,
      "type": "VEC4",
      "max": [
        1.0,
        0.0,
        0.0,
        1.0
      ],
      "min": [
        -1.0,
        0.0,
        0.0,
        -1.0
      ]
    },
    {
      "bufferView": 13,
      "componentType": 5126,
      "count": 32,
      "type": "VEC2",
      "max": [
        0.18784110248088837,
        0.9855387806892395
      ],
      "min": [
        0.01745896227657795,
        0.31685620546340942
      ]
    },
    {
      "bufferView": 14,
      "componentType": 5121,
      "count": 96,
      "type": "SCALAR",
      "max": [
        31.0
      ],
      "min": [
        0.0
      ]
    },
    {
      "bufferView": 15,
      "componentType": 5126,
      "count": 216,
      "type": "VEC3",
      "max": [
        1.0528062582015991,
        0.8517906665802002,
        3.0476984977722168
      ],
      "min": [
        -1.0528062582015991,
        -0.8517906665802002,
        -3.0476984977722168
      ]
    },
    {
      "bufferView": 16,
      "componentType": 5126,
      "count": 216,
      "type": "VEC3",
      "max": [
        0.99259161949157715,
        0.99533110857009888,
        1.0
      ],
      "min": [
        -0.99256855249404907,
        -1.0,
        -1.0
      ]
    },
    {
      "bufferView": 17,
      "componentType": 5126,
      "count": 216,
      "type": "VEC4",
      "max": [
        1.0,
        1.0,
        0.16132572293281555,
        1.0
      ],
      "min": [
        -1.0,
        -1.0,
        -0.99280762672424316,
        -1.0
      ]
    },
    {
      "bufferView": 18,
      "componentType": 5126,
      "count": 216,
      "type": "VEC2",
      "max": [
        1.9982266426086426,
        0.99918335676193237
      ],
      "min": [
        0.0020625018514692783,
        0.00090140104293823242
      ]
    },
    {
      "bufferView": 19,
      "componentType": 5121,
      "count": 588,
      "type": "SCALAR",
      "max": [
        215.0
      ],
      "min": [
        0.0
      ]
    },
    {
      "bufferView": 20,
      "componentType": 5126,
      "count": 170,
      "type": "VEC3",
      "max": [
        0.92084652185440063,
        1.3594104051589966,
        4.7609314918518066
      ],
      "min": [
        -0.92084652185440063,
        -1.3594111204147339,
        -4.7609319686889648
      ]
    },
    {
      "bufferView": 21,
      "componentType": 5126,
      "count": 170,
      "type": "VEC3",
      "max": [
        1.0,
        0.99999940395355225,
        1.0
      ],
      "min": [
        -0.99981611967086792,
        -1.0,
        -1.0
      ]
    },
    {
      "bufferView": 22,
      "componentType": 5126,
      "count": 170,
      "type": "VEC4",
      "max": [
        1.0,
        0.99995529651641846,
        1.0,
        1.0
      ],
      "min": [
        -1.0,
        -1.0,
        -0.9734606146812439,
        1.0
      ]
    },
    {
      "bufferView": 23,
      "componentType": 5126,
      "count": 170,
      "type": "VEC2",
      "max": [
        0.99964076280593872,
        0.99924653768539429
      ],
      "min": [
        0.000730637926608324,
        0.000516355037689209
      ]
    },
    {
      "bufferView": 24,
      "componentType": 5121,
      "count": 270,
      "type": "SCALAR",
      "max": [
        169.0
      ],
      "min": [
        0.0
      ]
    },
    {
      "bufferView": 25,
      "componentType": 5126,
      "count": 170,
      "type": "VEC3",
      "max": [
        0.92084652185440063,
        1.3594104051589966,
        4.760932445526123
      ],
      "min": [
        -0.92084652185440063,
        -1.3594111204147339,
        -4.760932445526123
      ]
    },
    {
      "bufferView": 26,
      "componentType": 5126,
      "count": 170,
      "type": "VEC3",
      "max": [
        0.999816358089447,
        0.9999992847442627,
        1.0
      ],
      "min": [
        -0.99999845027923584,
        -0.99999940395355225,
        -1.0
      ]
    },
    {
      "bufferView": 27,
      "componentType": 5126,
      "count": 170,
      "type": "VEC4",
      "max": [
        1.0,
        0.999955415725708,
        1.0,
        -1.0
      ],
      "min": [
        -1.0,
        -1.0,
        -0.97264319658279419,
        -1.0
      ]
    },
    {
      "bufferView": 28,
      "componentType": 5126,
      "count": 170,
      "type": "VEC2",
      "max": [
        0.99964076280593872,
        0.99924653768539429
      ],
      "min": [
        0.000730637926608324,
        0.000516355037689209
      ]
    },
    {
      "bufferView": 29,
      "componentType": 5121,
      "count": 270,
      "type": "SCALAR",
      "max": [
        169.0
      ],
      "min": [
        0.0
      ]
    }
  ],
  "asset": {
    "version": "2.0"
  },
  "buffers": [
    {
      "uri": "commander2.bin",
      "byteLength": 107244
    }
  ],
  "bufferViews": [
    {
      "buffer": 0,
      "byteLength": 5688
    },
    {
      "buffer": 0,
      "byteOffset": 5688,
      "byteLength": 5688
    },
    {
      "buffer": 0,
      "byteOffset": 11376,
      "byteLength": 7584
    },
    {
      "buffer": 0,
      "byteOffset": 18960,
      "byteLength": 3792
    },
    {
      "buffer": 0,
      "byteOffset": 22752,
      "byteLength": 2364
    },
    {
      "buffer": 0,
      "byteOffset": 25116,
      "byteLength": 11496
    },
    {
      "buffer": 0,
      "byteOffset": 36612,
      "byteLength": 11496
    },
    {
      "buffer": 0,
      "byteOffset": 48108,
      "byteLength": 15328
    },
    {
      "buffer": 0,
      "byteOffset": 63436,
      "byteLength": 7664
    },
    {
      "buffer": 0,
      "byteOffset": 71100,
      "byteLength": 6696
    },
    {
      "buffer": 0,
      "byteOffset": 77796,
      "byteLength": 384
    },
    {
      "buffer": 0,
      "byteOffset": 78180,
      "byteLength": 384
    },
    {
      "buffer": 0,
      "byteOffset": 78564,
      "byteLength": 512
    },
    {
      "buffer": 0,
      "byteOffset": 79076,
      "byteLength": 256
    },
    {
      "buffer": 0,
      "byteOffset": 79332,
      "byteLength": 96
    },
    {
      "buffer": 0,
      "byteOffset": 79428,
      "byteLength": 2592
    },
    {
      "buffer": 0,
      "byteOffset": 82020,
      "byteLength": 2592
    },
    {
      "buffer": 0,
      "byteOffset": 84612,
      "byteLength": 3456
    },
    {
      "buffer": 0,
      "byteOffset": 88068,
      "byteLength": 1728
    },
    {
      "buffer": 0,
      "byteOffset": 89796,
      "byteLength": 588
    },
    {
      "buffer": 0,
      "byteOffset": 90384,
      "byteLength": 2040
    },
    {
      "buffer": 0,
      "byteOffset": 92424,
      "byteLength": 2040
    },
    {
      "buffer": 0,
      "byteOffset": 94464,
      "byteLength": 2720
    },
    {
      "buffer": 0,
      "byteOffset": 97184,
      "byteLength": 1360
    },
    {
      "buffer": 0,
      "byteOffset": 98544,
      "byteLength": 270
    },
    {
      "buffer": 0,
      "byteOffset": 98814,
      "byteLength": 2040
    },
    {
      "buffer": 0,
      "byteOffset": 100854,
      "byteLength": 2040
    },
    {
      "buffer": 0,
      "byteOffset": 102894,
      "byteLength": 2720
    },
    {
      "buffer": 0,
      "byteOffset": 105614,
      "byteLength": 1360
    },
    {
      "buffer": 0,
      "byteOffset": 106974,
      "byteLength": 270
    }
  ],
  "images": [
    {
      "uri": "Cockpit3_Emission.png",
      "name": "Cockpit3_Emission"
    },
    {
      "uri": "Cockpit3_Normal.png",
      "name": "Cockpit3_Normal"
    },
    {
      "uri": "Cockpit3_Red.png",
      "name": "Cockpit3_Red"
    },
    {
      "uri": "Cockpit3_MetallicSmoothness.png",
      "name": "Cockpit3_MetallicSmoothness"
    },
    {
      "uri": "Engine1_Normal.png",
      "name": "Engine1_Normal"
    },
    {
      "uri": "Engine1_Grey.png",
      "name": "Engine1_Grey"
    },
    {
      "uri": "Engine1_MetallicSmoothness.png",
      "name": "Engine1_MetallicSmoothness"
    },
    {
      "uri": "Thrusters_Emission1.png",
      "name": "Thrusters_Emission1"
    },
    {
      "uri": "Thrusters_Normal.png",
      "name": "Thrusters_Normal"
    },
    {
      "uri": "Thrusters_Albedo.png",
      "name": "Thrusters_Albedo"
    },
    {
      "uri": "Thrusters_MetallicSmoothness.png",
      "name": "Thrusters_MetallicSmoothness"
    },
    {
      "uri": "MainBody2_Normal.png",
      "name": "MainBody2_Normal"
    },
    {
      "uri": "MainBody2_Red.png",
      "name": "MainBody2_Red"
    },
    {
      "uri": "MainBody2_MetallicSmoothness.png",
      "name": "MainBody2_MetallicSmoothness"
    },
    {
      "uri": "MainBody13_Normal.png",
      "name": "MainBody13_Normal"
    },
    {
      "uri": "MainBody13_Red.png",
      "name": "MainBody13_Red"
    },
    {
      "uri": "MainBody13_MetallicSmoothness.png",
      "name": "MainBody13_MetallicSmoothness"
    }
  ],
  "materials": [
    {
      "pbrMetallicRoughness": {
        "baseColorTexture": {
          "index": 2
        },
        "metallicFactor": 0.0,
        "roughnessFactor": 0.5,
        "metallicRoughnessTexture": {
          "index": 3
        }
      },
      "normalTexture": {
        "index": 1
      },
      "emissiveTexture": {
        "index": 0
      },
      "emissiveFactor": [
        1.0,
        1.0,
        1.0
      ],
      "name": "Cockpit3Red"
    },
    {
      "pbrMetallicRoughness": {
        "baseColorTexture": {
          "index": 5
        },
        "metallicFactor": 0.0,
        "roughnessFactor": 0.5,
        "metallicRoughnessTexture": {
          "index": 6
        }
      },
      "normalTexture": {
        "index": 4
      },
      "name": "Engine1"
    },
    {
      "pbrMetallicRoughness": {
        "baseColorTexture": {
          "index": 9
        },
        "metallicFactor": 0.0,
        "roughnessFactor": 0.5,
        "metallicRoughnessTexture": {
          "index": 10
        }
      },
      "normalTexture": {
        "index": 8
      },
      "emissiveTexture": {
        "index": 7
      },
      "emissiveFactor": [
        1.0,
        1.0,
        1.0
      ],
      "name": "Thrusters1"
    },
    {
      "pbrMetallicRoughness": {
        "baseColorTexture": {
          "index": 12
        },
        "metallicFactor": 0.0,
        "roughnessFactor": 0.5,
        "metallicRoughnessTexture": {
          "index": 13
        }
      },
      "normalTexture": {
        "index": 11
      },
      "name": "MainBody2"
    },
    {
      "pbrMetallicRoughness": {
        "baseColorTexture": {
          "index": 15
        },
        "metallicFactor": 0.0,
        "roughnessFactor": 0.5,
        "metallicRoughnessTexture": {
          "index": 16
        }
      },
      "normalTexture": {
        "index": 14
      },
      "name": "MainBody13"
    }
  ],
  "meshes": [
    {
      "primitives": [
        {
          "attributes": {
            "POSITION": 0,
            "NORMAL": 1,
            "TANGENT": 2,
            "TEXCOORD_0": 3
          },
          "indices": 4,
          "material": 0
        }
      ],
      "name": "Cockpit3_WithoutInterior"
    },
    {
      "primitives": [
        {
          "attributes": {
            "POSITION": 5,
            "NORMAL": 6,
            "TANGENT": 7,
            "TEXCOORD_0": 8
          },
          "indices": 9,
          "material": 1
        }
      ],
      "name": "Engine1"
    },
    {
      "primitives": [
        {
          "attributes": {
            "POSITION": 10,
            "NORMAL": 11,
            "TANGENT": 12,
            "TEXCOORD_0": 13
          },
          "indices": 14,
          "material": 2
        }
      ],
      "name": "thruster1"
    },
    {
      "primitives": [
        {
          "attributes": {
            "POSITION": 15,
            "NORMAL": 16,
            "TANGENT": 17,
            "TEXCOORD_0": 18
          },
          "indices": 19,
          "material": 3
        }
      ],
      "name": "MainBody2"
    },
    {
      "primitives": [
        {
          "attributes": {
            "POSITION": 20,
            "NORMAL": 21,
            "TANGENT": 22,
            "TEXCOORD_0": 23
          },
          "indices": 24,
          "material": 4
        }
      ],
      "name": "MainBody13"
    },
    {
      "primitives": [
        {
          "attributes": {
            "POSITION": 25,
            "NORMAL": 26,
            "TANGENT": 27,
            "TEXCOORD_0": 28
          },
          "indices": 29,
          "material": 4
        }
      ],
      "name": "MainBody13_Mirrored"
    }
  ],
  "nodes": [
    {
      "children": [
        1,
        2,
        4,
        5,
        6,
        7,
        9,
        11,
        12
      ],
      "rotation": [
        0.0,
        0.0,
        0.0,
        -1.0
      ],
      "name": "commander2"
    },
    {
      "mesh": 0,
      "rotation": [
        8.146034E-08,
        0.0,
        0.0,
        -1.0
      ],
      "scale": [
        2.0178,
        1.0,
        1.0
      ],
      "translation": [
        0.0,
        0.0,
        -3.04
      ],
      "name": "Cockpit3_WithoutInterior"
    },
    {
      "children": [
        3
      ],
      "mesh": 1,
      "rotation": [
        8.146035E-08,
        6.372732E-15,
        -7.82310963E-08,
        -1.0
      ],
      "scale": [
        1.99095654,
        0.81929,
        0.81929
      ],
      "translation": [
        0.04,
        -1.09,
        -0.86
      ],
      "name": "Engine1"
    },
    {
      "mesh": 2,
      "rotation": [
        7.82310963E-08,
        1.0,
        8.146035E-08,
        -6.372732E-15
      ],
      "scale": [
        0.77,
        0.77,
        0.77
      ],
      "translation": [
        0.0,
        0.255,
        1.83
      ],
      "name": "thruster1"
    },
    {
      "mesh": 3,
      "rotation": [
        0.0,
        0.0,
        0.0,
        -1.0
      ],
      "scale": [
        0.83757,
        0.83757,
        0.83757
      ],
      "translation": [
        0.0,
        0.0,
        2.4
      ],
      "name": "MainBody2"
    },
    {
      "mesh": 4,
      "rotation": [
        0.0,
        0.0,
        0.8487143,
        -0.5288517
      ],
      "translation": [
        -4.7,
        -2.24316253E-07,
        1.96
      ],
      "name": "MainBody13"
    },
    {
      "mesh": 5,
      "rotation": [
        0.0,
        0.0,
        -0.8158079,
        -0.578323066
      ],
      "translation": [
        4.7,
        0.45,
        1.96
      ],
      "name": "MainBody13_Mirrored"
    },
    {
      "children": [
        8
      ],
      "mesh": 1,
      "rotation": [
        8.146035E-08,
        6.372732E-15,
        -7.82310963E-08,
        -1.0
      ],
      "scale": [
        0.9393979,
        0.9393979,
        0.9393979
      ],
      "translation": [
        1.08,
        -1.45,
        2.52
      ],
      "name": "Engine1 (2)"
    },
    {
      "mesh": 2,
      "rotation": [
        7.82310963E-08,
        1.0,
        8.146035E-08,
        -6.372732E-15
      ],
      "scale": [
        0.77,
        0.77,
        0.77
      ],
      "translation": [
        0.0,
        0.255,
        1.83
      ],
      "name": "thruster1"
    },
    {
      "children": [
        10
      ],
      "mesh": 1,
      "rotation": [
        8.146035E-08,
        6.372732E-15,
        -7.82310963E-08,
        -1.0
      ],
      "scale": [
        0.9393979,
        0.9393979,
        0.9393979
      ],
      "translation": [
        -1.08,
        -1.45,
        2.52
      ],
      "name": "Engine1 (3)"
    },
    {
      "mesh": 2,
      "rotation": [
        7.82310963E-08,
        1.0,
        8.146035E-08,
        -6.372732E-15
      ],
      "scale": [
        0.77,
        0.77,
        0.77
      ],
      "translation": [
        0.0,
        0.255,
        1.83
      ],
      "name": "thruster1"
    },
    {
      "mesh": 0,
      "rotation": [
        8.146034E-08,
        0.0,
        0.0,
        -1.0
      ],
      "scale": [
        2.0178,
        1.0,
        1.0
      ],
      "translation": [
        2.57,
        0.49,
        1.79
      ],
      "name": "Cockpit3_WithoutInterior (1)"
    },
    {
      "mesh": 0,
      "rotation": [
        8.146034E-08,
        0.0,
        0.0,
        -1.0
      ],
      "scale": [
        2.0178,
        1.0,
        1.0
      ],
      "translation": [
        -2.49,
        0.49,
        1.79
      ],
      "name": "Cockpit3_WithoutInterior (2)"
    }
  ],
  "samplers": [
    {}
  ],
  "scene": 0,
  "scenes": [
    {
      "nodes": [
        0
      ],
      "name": "commander2"
    }
  ],
  "textures": [
    {
      "sampler": 0,
      "source": 0,
      "name": "Cockpit3_Emission"
    },
    {
      "sampler": 0,
      "source": 1,
      "name": "Cockpit3_Normal"
    },
    {
      "sampler": 0,
      "source": 2,
      "name": "Cockpit3_Red"
    },
    {
      "sampler": 0,
      "source": 3,
      "name": "Cockpit3_MetallicSmoothness"
    },
    {
      "sampler": 0,
      "source": 4,
      "name": "Engine1_Normal"
    },
    {
      "sampler": 0,
      "source": 5,
      "name": "Engine1_Grey"
    },
    {
      "sampler": 0,
      "source": 6,
      "name": "Engine1_MetallicSmoothness"
    },
    {
      "sampler": 0,
      "source": 7,
      "name": "Thrusters_Emission1"
    },
    {
      "sampler": 0,
      "source": 8,
      "name": "Thrusters_Normal"
    },
    {
      "sampler": 0,
      "source": 9,
      "name": "Thrusters_Albedo"
    },
    {
      "sampler": 0,
      "source": 10,
      "name": "Thrusters_MetallicSmoothness"
    },
    {
      "sampler": 0,
      "source": 11,
      "name": "MainBody2_Normal"
    },
    {
      "sampler": 0,
      "source": 12,
      "name": "MainBody2_Red"
    },
    {
      "sampler": 0,
      "source": 13,
      "name": "MainBody2_MetallicSmoothness"
    },
    {
      "sampler": 0,
      "source": 14,
      "name": "MainBody13_Normal"
    },
    {
      "sampler": 0,
      "source": 15,
      "name": "MainBody13_Red"
    },
    {
      "sampler": 0,
      "source": 16,
      "name": "MainBody13_MetallicSmoothness"
    }
  ]
}