{
  "accessors": [
    {
      "bufferView": 0,
      "componentType": 5126,
      "count": 1391,
      "type": "VEC3",
      "max": [
        5.5575566291809082,
        1.3914216756820679,
        5.4252634048461914
      ],
      "min": [
        -5.5575566291809082,
        -1.3914494514465332,
        -5.4252686500549316
      ]
    },
    {
      "bufferView": 1,
      "componentType": 5126,
      "count": 1391,
      "type": "VEC3",
      "max": [
        1.0,
        1.0,
        1.0
      ],
      "min": [
        -1.0,
        -1.0,
        -1.0
      ]
    },
    {
      "bufferView": 2,
      "componentType": 5126,
      "count": 1391,
      "type": "VEC4",
      "max": [
        1.0,
        1.0,
        1.0,
        1.0
      ],
      "min": [
        -1.0,
        -1.0,
        -1.0,
        -1.0
      ]
    },
    {
      "bufferView": 3,
      "componentType": 5126,
      "count": 1391,
      "type": "VEC2",
      "max": [
        0.99730002880096436,
        0.996399998664856
      ],
      "min": [
        0.001500000013038516,
        0.0062000155448913574
      ]
    },
    {
      "bufferView": 4,
      "componentType": 5123,
      "count": 4056,
      "type": "SCALAR",
      "max": [
        1390.0
      ],
      "min": [
        0.0
      ]
    }
  ],
  "asset": {
    "version": "2.0"
  },
  "buffers": [
    {
      "uri": "defender1.bin",
      "byteLength": 74880
    }
  ],
  "bufferViews": [
    {
      "buffer": 0,
      "byteLength": 16692
    },
    {
      "buffer": 0,
      "byteOffset": 16692,
      "byteLength": 16692
    },
    {
      "buffer": 0,
      "byteOffset": 33384,
      "byteLength": 22256
    },
    {
      "buffer": 0,
      "byteOffset": 55640,
      "byteLength": 11128
    },
    {
      "buffer": 0,
      "byteOffset": 66768,
      "byteLength": 8112
    }
  ],
  "images": [
    {
      "uri": "StarSparrow_Emission.png",
      "name": "StarSparrow_Emission"
    },
    {
      "uri": "StarSparrow_Normal.png",
      "name": "StarSparrow_Normal"
    },
    {
      "uri": "StarSparrow_Blue.png",
      "name": "StarSparrow_Blue"
    },
    {
      "uri": "StarSparrow_MetallicSmoothness.png",
      "name": "StarSparrow_MetallicSmoothness"
    }
  ],
  "materials": [
    {
      "pbrMetallicRoughness": {
        "baseColorTexture": {
          "index": 2
        },
        "metallicFactor": 0.0,
        "roughnessFactor": 0.5,
        "metallicRoughnessTexture": {
          "index": 3
        }
      },
      "normalTexture": {
        "index": 1
      },
      "emissiveTexture": {
        "index": 0
      },
      "emissiveFactor": [
        1.0,
        1.0,
        1.0
      ],
      "name": "StarSparrow_Blue"
    }
  ],
  "meshes": [
    {
      "primitives": [
        {
          "attributes": {
            "POSITION": 0,
            "NORMAL": 1,
            "TANGENT": 2,
            "TEXCOORD_0": 3
          },
          "indices": 4,
          "material": 0
        }
      ],
      "name": "defender1"
    }
  ],
  "nodes": [
    {
      "mesh": 0,
      "rotation": [
        0.0,
        0.0,
        0.0,
        -1.0
      ],
      "name": "defender1"
    }
  ],
  "samplers": [
    {}
  ],
  "scene": 0,
  "scenes": [
    {
      "nodes": [
        0
      ],
      "name": "defender1"
    }
  ],
  "textures": [
    {
      "sampler": 0,
      "source": 0,
      "name": "StarSparrow_Emission"
    },
    {
      "sampler": 0,
      "source": 1,
      "name": "StarSparrow_Normal"
    },
    {
      "sampler": 0,
      "source": 2,
      "name": "StarSparrow_Blue"
    },
    {
      "sampler": 0,
      "source": 3,
      "name": "StarSparrow_MetallicSmoothness"
    }
  ]
}