{
  "accessors": [
    {
      "bufferView": 0,
      "componentType": 5126,
      "count": 2305,
      "type": "VEC3",
      "max": [
        6.2948822975158691,
        0.9106181263923645,
        5.4252634048461914
      ],
      "min": [
        -6.2948822975158691,
        -0.91063416004180908,
        -5.4252634048461914
      ]
    },
    {
      "bufferView": 1,
      "componentType": 5126,
      "count": 2305,
      "type": "VEC3",
      "max": [
        1.0,
        1.0,
        1.0
      ],
      "min": [
        -1.0,
        -1.0,
        -1.0
      ]
    },
    {
      "bufferView": 2,
      "componentType": 5126,
      "count": 2305,
      "type": "VEC4",
      "max": [
        1.0,
        1.0,
        1.0,
        1.0
      ],
      "min": [
        -1.0,
        -1.0,
        -1.0,
        -1.0
      ]
    },
    {
      "bufferView": 3,
      "componentType": 5126,
      "count": 2305,
      "type": "VEC2",
      "max": [
        0.99730002880096436,
        0.99879997968673706
      ],
      "min": [
        0.001500000013038516,
        0.0062000155448913574
      ]
    },
    {
      "bufferView": 4,
      "componentType": 5123,
      "count": 6408,
      "type": "SCALAR",
      "max": [
        2304.0
      ],
      "min": [
        0.0
      ]
    }
  ],
  "asset": {
    "version": "2.0"
  },
  "buffers": [
    {
      "uri": "scout4.bin",
      "byteLength": 123456
    }
  ],
  "bufferViews": [
    {
      "buffer": 0,
      "byteLength": 27660
    },
    {
      "buffer": 0,
      "byteOffset": 27660,
      "byteLength": 27660
    },
    {
      "buffer": 0,
      "byteOffset": 55320,
      "byteLength": 36880
    },
    {
      "buffer": 0,
      "byteOffset": 92200,
      "byteLength": 18440
    },
    {
      "buffer": 0,
      "byteOffset": 110640,
      "byteLength": 12816
    }
  ],
  "images": [
    {
      "uri": "StarSparrow_Emission.png",
      "name": "StarSparrow_Emission"
    },
    {
      "uri": "StarSparrow_Normal.png",
      "name": "StarSparrow_Normal"
    },
    {
      "uri": "StarSparrow_Green.png",
      "name": "StarSparrow_Green"
    },
    {
      "uri": "StarSparrow_MetallicSmoothness.png",
      "name": "StarSparrow_MetallicSmoothness"
    }
  ],
  "materials": [
    {
      "pbrMetallicRoughness": {
        "baseColorTexture": {
          "index": 2
        },
        "metallicFactor": 0.0,
        "roughnessFactor": 0.5,
        "metallicRoughnessTexture": {
          "index": 3
        }
      },
      "normalTexture": {
        "index": 1
      },
      "emissiveTexture": {
        "index": 0
      },
      "emissiveFactor": [
        1.0,
        1.0,
        1.0
      ],
      "name": "StarSparrow_Green"
    }
  ],
  "meshes": [
    {
      "primitives": [
        {
          "attributes": {
            "POSITION": 0,
            "NORMAL": 1,
            "TANGENT": 2,
            "TEXCOORD_0": 3
          },
          "indices": 4,
          "material": 0
        }
      ],
      "name": "scout4"
    }
  ],
  "nodes": [
    {
      "mesh": 0,
      "rotation": [
        0.0,
        0.0,
        0.0,
        -1.0
      ],
      "name": "scout4"
    }
  ],
  "samplers": [
    {}
  ],
  "scene": 0,
  "scenes": [
    {
      "nodes": [
        0
      ],
      "name": "scout4"
    }
  ],
  "textures": [
    {
      "sampler": 0,
      "source": 0,
      "name": "StarSparrow_Emission"
    },
    {
      "sampler": 0,
      "source": 1,
      "name": "StarSparrow_Normal"
    },
    {
      "sampler": 0,
      "source": 2,
      "name": "StarSparrow_Green"
    },
    {
      "sampler": 0,
      "source": 3,
      "name": "StarSparrow_MetallicSmoothness"
    }
  ]
}