{
  "accessors": [
    {
      "bufferView": 0,
      "componentType": 5126,
      "count": 1355,
      "type": "VEC3",
      "max": [
        4.7456507682800293,
        1.4038693904876709,
        5.4252610206604
      ],
      "min": [
        -4.7456507682800293,
        -1.4038807153701782,
        -5.4252634048461914
      ]
    },
    {
      "bufferView": 1,
      "componentType": 5126,
      "count": 1355,
      "type": "VEC3",
      "max": [
        0.99999189376831055,
        1.0,
        1.0
      ],
      "min": [
        -0.9999920129776001,
        -1.0,
        -1.0
      ]
    },
    {
      "bufferView": 2,
      "componentType": 5126,
      "count": 1355,
      "type": "VEC4",
      "max": [
        1.0,
        1.0,
        1.0,
        1.0
      ],
      "min": [
        -1.0,
        -1.0,
        -1.0,
        -1.0
      ]
    },
    {
      "bufferView": 3,
      "componentType": 5126,
      "count": 1355,
      "type": "VEC2",
      "max": [
        0.99730002880096436,
        0.99879997968673706
      ],
      "min": [
        0.001500000013038516,
        0.0062000155448913574
      ]
    },
    {
      "bufferView": 4,
      "componentType": 5123,
      "count": 3822,
      "type": "SCALAR",
      "max": [
        1354.0
      ],
      "min": [
        0.0
      ]
    }
  ],
  "asset": {
    "version": "2.0"
  },
  "buffers": [
    {
      "uri": "scout3.bin",
      "byteLength": 72684
    }
  ],
  "bufferViews": [
    {
      "buffer": 0,
      "byteLength": 16260
    },
    {
      "buffer": 0,
      "byteOffset": 16260,
      "byteLength": 16260
    },
    {
      "buffer": 0,
      "byteOffset": 32520,
      "byteLength": 21680
    },
    {
      "buffer": 0,
      "byteOffset": 54200,
      "byteLength": 10840
    },
    {
      "buffer": 0,
      "byteOffset": 65040,
      "byteLength": 7644
    }
  ],
  "images": [
    {
      "uri": "StarSparrow_Emission.png",
      "name": "StarSparrow_Emission"
    },
    {
      "uri": "StarSparrow_Normal.png",
      "name": "StarSparrow_Normal"
    },
    {
      "uri": "StarSparrow_Grey.png",
      "name": "StarSparrow_Grey"
    },
    {
      "uri": "StarSparrow_MetallicSmoothness.png",
      "name": "StarSparrow_MetallicSmoothness"
    }
  ],
  "materials": [
    {
      "pbrMetallicRoughness": {
        "baseColorTexture": {
          "index": 2
        },
        "metallicFactor": 0.0,
        "roughnessFactor": 0.5,
        "metallicRoughnessTexture": {
          "index": 3
        }
      },
      "normalTexture": {
        "index": 1
      },
      "emissiveTexture": {
        "index": 0
      },
      "emissiveFactor": [
        1.0,
        1.0,
        1.0
      ],
      "name": "StarSparrow_Grey"
    }
  ],
  "meshes": [
    {
      "primitives": [
        {
          "attributes": {
            "POSITION": 0,
            "NORMAL": 1,
            "TANGENT": 2,
            "TEXCOORD_0": 3
          },
          "indices": 4,
          "material": 0
        }
      ],
      "name": "scout3"
    }
  ],
  "nodes": [
    {
      "mesh": 0,
      "rotation": [
        0.0,
        0.0,
        0.0,
        -1.0
      ],
      "name": "scout3"
    }
  ],
  "samplers": [
    {}
  ],
  "scene": 0,
  "scenes": [
    {
      "nodes": [
        0
      ],
      "name": "scout3"
    }
  ],
  "textures": [
    {
      "sampler": 0,
      "source": 0,
      "name": "StarSparrow_Emission"
    },
    {
      "sampler": 0,
      "source": 1,
      "name": "StarSparrow_Normal"
    },
    {
      "sampler": 0,
      "source": 2,
      "name": "StarSparrow_Grey"
    },
    {
      "sampler": 0,
      "source": 3,
      "name": "StarSparrow_MetallicSmoothness"
    }
  ]
}