{
  "accessors": [
    {
      "bufferView": 0,
      "componentType": 5126,
      "count": 807,
      "type": "VEC3",
      "max": [
        3.0783276557922363,
        1.4777189493179321,
        5.371279239654541
      ],
      "min": [
        -3.0783276557922363,
        -1.4777429103851318,
        -5.371279239654541
      ]
    },
    {
      "bufferView": 1,
      "componentType": 5126,
      "count": 807,
      "type": "VEC3",
      "max": [
        1.0,
        1.0,
        1.0
      ],
      "min": [
        -1.0,
        -1.0,
        -1.0
      ]
    },
    {
      "bufferView": 2,
      "componentType": 5126,
      "count": 807,
      "type": "VEC4",
      "max": [
        1.0,
        1.0,
        1.0,
        1.0
      ],
      "min": [
        -1.0,
        -1.0,
        -1.0,
        -1.0
      ]
    },
    {
      "bufferView": 3,
      "componentType": 5126,
      "count": 807,
      "type": "VEC2",
      "max": [
        0.99730002880096436,
        0.99879997968673706
      ],
      "min": [
        0.001500000013038516,
        0.0062000155448913574
      ]
    },
    {
      "bufferView": 4,
      "componentType": 5123,
      "count": 2256,
      "type": "SCALAR",
      "max": [
        806.0
      ],
      "min": [
        0.0
      ]
    }
  ],
  "asset": {
    "version": "2.0"
  },
  "buffers": [
    {
      "uri": "scout10.bin",
      "byteLength": 43248
    }
  ],
  "bufferViews": [
    {
      "buffer": 0,
      "byteLength": 9684
    },
    {
      "buffer": 0,
      "byteOffset": 9684,
      "byteLength": 9684
    },
    {
      "buffer": 0,
      "byteOffset": 19368,
      "byteLength": 12912
    },
    {
      "buffer": 0,
      "byteOffset": 32280,
      "byteLength": 6456
    },
    {
      "buffer": 0,
      "byteOffset": 38736,
      "byteLength": 4512
    }
  ],
  "images": [
    {
      "uri": "StarSparrow_Emission.png",
      "name": "StarSparrow_Emission"
    },
    {
      "uri": "StarSparrow_Normal.png",
      "name": "StarSparrow_Normal"
    },
    {
      "uri": "StarSparrow_Grey.png",
      "name": "StarSparrow_Grey"
    },
    {
      "uri": "StarSparrow_MetallicSmoothness.png",
      "name": "StarSparrow_MetallicSmoothness"
    }
  ],
  "materials": [
    {
      "pbrMetallicRoughness": {
        "baseColorTexture": {
          "index": 2
        },
        "metallicFactor": 0.0,
        "roughnessFactor": 0.5,
        "metallicRoughnessTexture": {
          "index": 3
        }
      },
      "normalTexture": {
        "index": 1
      },
      "emissiveTexture": {
        "index": 0
      },
      "emissiveFactor": [
        1.0,
        1.0,
        1.0
      ],
      "name": "StarSparrow_Grey"
    }
  ],
  "meshes": [
    {
      "primitives": [
        {
          "attributes": {
            "POSITION": 0,
            "NORMAL": 1,
            "TANGENT": 2,
            "TEXCOORD_0": 3
          },
          "indices": 4,
          "material": 0
        }
      ],
      "name": "scout10"
    }
  ],
  "nodes": [
    {
      "mesh": 0,
      "rotation": [
        0.0,
        0.0,
        0.0,
        -1.0
      ],
      "name": "scout10"
    }
  ],
  "samplers": [
    {}
  ],
  "scene": 0,
  "scenes": [
    {
      "nodes": [
        0
      ],
      "name": "scout10"
    }
  ],
  "textures": [
    {
      "sampler": 0,
      "source": 0,
      "name": "StarSparrow_Emission"
    },
    {
      "sampler": 0,
      "source": 1,
      "name": "StarSparrow_Normal"
    },
    {
      "sampler": 0,
      "source": 2,
      "name": "StarSparrow_Grey"
    },
    {
      "sampler": 0,
      "source": 3,
      "name": "StarSparrow_MetallicSmoothness"
    }
  ]
}