{
  "accessors": [
    {
      "bufferView": 0,
      "componentType": 5126,
      "count": 1151,
      "type": "VEC3",
      "max": [
        4.0321288108825684,
        2.9366579055786133,
        7.8261723518371582
      ],
      "min": [
        -4.0321288108825684,
        -2.9366574287414551,
        -7.8261723518371582
      ]
    },
    {
      "bufferView": 1,
      "componentType": 5126,
      "count": 1151,
      "type": "VEC3",
      "max": [
        1.0,
        1.0,
        1.0
      ],
      "min": [
        -1.0,
        -1.0,
        -1.0
      ]
    },
    {
      "bufferView": 2,
      "componentType": 5126,
      "count": 1151,
      "type": "VEC4",
      "max": [
        1.0,
        1.0,
        1.0,
        1.0
      ],
      "min": [
        -1.0,
        -1.0,
        -1.0,
        -1.0
      ]
    },
    {
      "bufferView": 3,
      "componentType": 5126,
      "count": 1151,
      "type": "VEC2",
      "max": [
        0.9973067045211792,
        0.99642813205718994
      ],
      "min": [
        0.0015493172686547041,
        0.0061962008476257324
      ]
    },
    {
      "bufferView": 4,
      "componentType": 5123,
      "count": 3414,
      "type": "SCALAR",
      "max": [
        1150.0
      ],
      "min": [
        0.0
      ]
    }
  ],
  "asset": {
    "version": "2.0"
  },
  "buffers": [
    {
      "uri": "scout14.bin",
      "byteLength": 62076
    }
  ],
  "bufferViews": [
    {
      "buffer": 0,
      "byteLength": 13812
    },
    {
      "buffer": 0,
      "byteOffset": 13812,
      "byteLength": 13812
    },
    {
      "buffer": 0,
      "byteOffset": 27624,
      "byteLength": 18416
    },
    {
      "buffer": 0,
      "byteOffset": 46040,
      "byteLength": 9208
    },
    {
      "buffer": 0,
      "byteOffset": 55248,
      "byteLength": 6828
    }
  ],
  "images": [
    {
      "uri": "StarSparrow_Emission.png",
      "name": "StarSparrow_Emission"
    },
    {
      "uri": "StarSparrow_Normal.png",
      "name": "StarSparrow_Normal"
    },
    {
      "uri": "StarSparrow_Green.png",
      "name": "StarSparrow_Green"
    },
    {
      "uri": "StarSparrow_MetallicSmoothness.png",
      "name": "StarSparrow_MetallicSmoothness"
    }
  ],
  "materials": [
    {
      "pbrMetallicRoughness": {
        "baseColorTexture": {
          "index": 2
        },
        "metallicFactor": 0.0,
        "roughnessFactor": 0.5,
        "metallicRoughnessTexture": {
          "index": 3
        }
      },
      "normalTexture": {
        "index": 1
      },
      "emissiveTexture": {
        "index": 0
      },
      "emissiveFactor": [
        1.0,
        1.0,
        1.0
      ],
      "name": "StarSparrow_Green"
    }
  ],
  "meshes": [
    {
      "primitives": [
        {
          "attributes": {
            "POSITION": 0,
            "NORMAL": 1,
            "TANGENT": 2,
            "TEXCOORD_0": 3
          },
          "indices": 4,
          "material": 0
        }
      ],
      "name": "scout14"
    }
  ],
  "nodes": [
    {
      "mesh": 0,
      "rotation": [
        2.18556941E-08,
        0.0,
        0.0,
        -1.0
      ],
      "name": "scout14"
    }
  ],
  "samplers": [
    {}
  ],
  "scene": 0,
  "scenes": [
    {
      "nodes": [
        0
      ],
      "name": "scout14"
    }
  ],
  "textures": [
    {
      "sampler": 0,
      "source": 0,
      "name": "StarSparrow_Emission"
    },
    {
      "sampler": 0,
      "source": 1,
      "name": "StarSparrow_Normal"
    },
    {
      "sampler": 0,
      "source": 2,
      "name": "StarSparrow_Green"
    },
    {
      "sampler": 0,
      "source": 3,
      "name": "StarSparrow_MetallicSmoothness"
    }
  ]
}