{
  "accessors": [
    {
      "bufferView": 0,
      "componentType": 5126,
      "count": 1953,
      "type": "VEC3",
      "max": [
        6.8194127082824707,
        1.6280257701873779,
        5.4252629280090332
      ],
      "min": [
        -6.8194127082824707,
        -1.6280273199081421,
        -5.4252629280090332
      ]
    },
    {
      "bufferView": 1,
      "componentType": 5126,
      "count": 1953,
      "type": "VEC3",
      "max": [
        1.0,
        1.0,
        1.0
      ],
      "min": [
        -1.0,
        -1.0,
        -1.0
      ]
    },
    {
      "bufferView": 2,
      "componentType": 5126,
      "count": 1953,
      "type": "VEC4",
      "max": [
        1.0,
        1.0,
        1.0,
        1.0
      ],
      "min": [
        -1.0,
        -1.0,
        -1.0,
        -1.0
      ]
    },
    {
      "bufferView": 3,
      "componentType": 5126,
      "count": 1953,
      "type": "VEC2",
      "max": [
        0.99730002880096436,
        0.99379998445510864
      ],
      "min": [
        0.001500000013038516,
        0.0012000000569969416
      ]
    },
    {
      "bufferView": 4,
      "componentType": 5125,
      "count": 5412,
      "type": "SCALAR",
      "max": [
        1952.0
      ],
      "min": [
        0.0
      ]
    }
  ],
  "asset": {
    "generator": "Plattar UnityGLTF (2019.4.34f1)",
    "version": "2.0"
  },
  "buffers": [
    {
      "uri": "StarSparrow1.bin",
      "byteLength": 115392
    }
  ],
  "bufferViews": [
    {
      "buffer": 0,
      "byteLength": 23436
    },
    {
      "buffer": 0,
      "byteOffset": 23436,
      "byteLength": 23436
    },
    {
      "buffer": 0,
      "byteOffset": 46872,
      "byteLength": 31248
    },
    {
      "buffer": 0,
      "byteOffset": 78120,
      "byteLength": 15624
    },
    {
      "buffer": 0,
      "byteOffset": 93744,
      "byteLength": 21648
    }
  ],
  "images": [
    {
      "uri": "StarSparrow_Emission.jpg",
      "name": "StarSparrow_Emission"
    },
    {
      "uri": "StarSparrow_Normal.png",
      "name": "StarSparrow_Normal"
    },
    {
      "uri": "StarSparrow_Red.jpg",
      "name": "StarSparrow_Red"
    },
    {
      "uri": "StarSparrow_MetallicSmoothness.png",
      "name": "StarSparrow_MetallicSmoothness"
    }
  ],
  "materials": [
    {
      "pbrMetallicRoughness": {
        "baseColorTexture": {
          "index": 2
        },
        "metallicFactor": 0.99,
        "metallicRoughnessTexture": {
          "index": 3
        }
      },
      "normalTexture": {
        "index": 1
      },
      "emissiveTexture": {
        "index": 0
      },
      "emissiveFactor": [
        1.0,
        1.0,
        1.0
      ],
      "name": "StarSparrow_Red"
    }
  ],
  "meshes": [
    {
      "primitives": [
        {
          "attributes": {
            "POSITION": 0,
            "NORMAL": 1,
            "TANGENT": 2,
            "TEXCOORD_0": 3
          },
          "indices": 4,
          "material": 0
        }
      ],
      "name": "StarSparrow1"
    }
  ],
  "nodes": [
    {
      "mesh": 0,
      "rotation": [
        0.0,
        0.0,
        0.0,
        -1.0
      ],
      "name": "StarSparrow1"
    }
  ],
  "samplers": [
    {
      "minFilter": 9729
    }
  ],
  "scene": 0,
  "scenes": [
    {
      "nodes": [
        0
      ],
      "name": "StarSparrow1"
    }
  ],
  "textures": [
    {
      "sampler": 0,
      "source": 0,
      "name": "StarSparrow_Emission"
    },
    {
      "sampler": 0,
      "source": 1,
      "name": "StarSparrow_Normal"
    },
    {
      "sampler": 0,
      "source": 2,
      "name": "StarSparrow_Red"
    },
    {
      "sampler": 0,
      "source": 3,
      "name": "StarSparrow_MetallicSmoothness"
    }
  ]
}