{
  "accessors": [
    {
      "bufferView": 0,
      "componentType": 5126,
      "count": 1308,
      "type": "VEC3",
      "max": [
        4.6359686851501465,
        1.362369179725647,
        6.1088743209838867
      ],
      "min": [
        -4.6359686851501465,
        -1.362369179725647,
        -6.1088743209838867
      ]
    },
    {
      "bufferView": 1,
      "componentType": 5126,
      "count": 1308,
      "type": "VEC3",
      "max": [
        1.0,
        1.0,
        1.0
      ],
      "min": [
        -1.0,
        -1.0,
        -1.0
      ]
    },
    {
      "bufferView": 2,
      "componentType": 5126,
      "count": 1308,
      "type": "VEC4",
      "max": [
        1.0,
        1.0,
        1.0,
        1.0
      ],
      "min": [
        -1.0,
        -1.0,
        -1.0,
        -1.0
      ]
    },
    {
      "bufferView": 3,
      "componentType": 5126,
      "count": 1308,
      "type": "VEC2",
      "max": [
        0.9973067045211792,
        0.99642813205718994
      ],
      "min": [
        0.0015493172686547041,
        0.0061962008476257324
      ]
    },
    {
      "bufferView": 4,
      "componentType": 5123,
      "count": 4032,
      "type": "SCALAR",
      "max": [
        1307.0
      ],
      "min": [
        0.0
      ]
    }
  ],
  "asset": {
    "version": "2.0"
  },
  "buffers": [
    {
      "uri": "scout15.bin",
      "byteLength": 70848
    }
  ],
  "bufferViews": [
    {
      "buffer": 0,
      "byteLength": 15696
    },
    {
      "buffer": 0,
      "byteOffset": 15696,
      "byteLength": 15696
    },
    {
      "buffer": 0,
      "byteOffset": 31392,
      "byteLength": 20928
    },
    {
      "buffer": 0,
      "byteOffset": 52320,
      "byteLength": 10464
    },
    {
      "buffer": 0,
      "byteOffset": 62784,
      "byteLength": 8064
    }
  ],
  "images": [
    {
      "uri": "StarSparrow_Emission.png",
      "name": "StarSparrow_Emission"
    },
    {
      "uri": "StarSparrow_Normal.png",
      "name": "StarSparrow_Normal"
    },
    {
      "uri": "StarSparrow_Purple.png",
      "name": "StarSparrow_Purple"
    },
    {
      "uri": "StarSparrow_MetallicSmoothness.png",
      "name": "StarSparrow_MetallicSmoothness"
    }
  ],
  "materials": [
    {
      "pbrMetallicRoughness": {
        "baseColorTexture": {
          "index": 2
        },
        "metallicFactor": 0.0,
        "roughnessFactor": 0.5,
        "metallicRoughnessTexture": {
          "index": 3
        }
      },
      "normalTexture": {
        "index": 1
      },
      "emissiveTexture": {
        "index": 0
      },
      "emissiveFactor": [
        1.0,
        1.0,
        1.0
      ],
      "name": "StarSparrow_Purple"
    }
  ],
  "meshes": [
    {
      "primitives": [
        {
          "attributes": {
            "POSITION": 0,
            "NORMAL": 1,
            "TANGENT": 2,
            "TEXCOORD_0": 3
          },
          "indices": 4,
          "material": 0
        }
      ],
      "name": "scout15"
    }
  ],
  "nodes": [
    {
      "mesh": 0,
      "rotation": [
        2.18556941E-08,
        0.0,
        0.0,
        -1.0
      ],
      "name": "scout15"
    }
  ],
  "samplers": [
    {}
  ],
  "scene": 0,
  "scenes": [
    {
      "nodes": [
        0
      ],
      "name": "scout15"
    }
  ],
  "textures": [
    {
      "sampler": 0,
      "source": 0,
      "name": "StarSparrow_Emission"
    },
    {
      "sampler": 0,
      "source": 1,
      "name": "StarSparrow_Normal"
    },
    {
      "sampler": 0,
      "source": 2,
      "name": "StarSparrow_Purple"
    },
    {
      "sampler": 0,
      "source": 3,
      "name": "StarSparrow_MetallicSmoothness"
    }
  ]
}