 <svg
        width="30"
        height="30"
        viewBox="0 0 115 96"
        fill="none"
        xmlns="http://www.w3.org/2000/svg"
      >
        <path
          d="M57.611 0L24.0234 13.9124L10.111 47.5L24.0234 81.0876L57.611 95L91.1985 81.0876L105.111 47.5L91.1985 13.9124L57.611 0Z"
          fill="url(#paint0_linear_2092_491)"
        />
        <path
          d="M57.646 47.6108L91.2842 13.9727L71.3231 14.5272L57.646 0.11084V47.6108Z"
          fill="url(#paint1_linear_2092_491)"
        />
        <path
          d="M57.6073 47.6138L105.179 47.6138L90.6721 33.8913L91.1948 14.0263L57.6073 47.6138Z"
          fill="url(#paint2_linear_2092_491)"
        />
        <path
          d="M57.6461 47.6108L24.0079 13.9727L43.969 14.5272L57.6461 0.11084V47.6108Z"
          fill="url(#paint3_linear_2092_491)"
        />
        <path
          d="M57.6848 47.6138L10.1133 47.6138L24.62 33.8913L24.0973 14.0263L57.6848 47.6138Z"
          fill="url(#paint4_linear_2092_491)"
        />
        <path
          d="M57.6073 47.6108L23.9691 81.249L43.9302 80.6945L57.6073 95.1108V47.6108Z"
          fill="url(#paint5_linear_2092_491)"
        />
        <path
          d="M57.646 47.6078L10.0745 47.6078L24.5812 61.3304L24.0585 81.1954L57.646 47.6078Z"
          fill="url(#paint6_linear_2092_491)"
        />
        <path
          d="M57.6072 47.6108L91.2454 81.249L71.2843 80.6945L57.6072 95.1108V47.6108Z"
          fill="url(#paint7_linear_2092_491)"
        />
        <path
          d="M57.5684 47.6078L105.14 47.6078L90.6333 61.3304L91.156 81.1954L57.5684 47.6078Z"
          fill="url(#paint8_linear_2092_491)"
        />
        <path
          d="M57.6109 23.4727L40.6211 30.5101L33.5837 47.4999L40.6211 64.4897L57.6109 71.5271L74.6008 64.4897L81.6382 47.4999L74.6008 30.5101L57.6109 23.4727Z"
          fill="url(#paint9_linear_2092_491)"
          style="mix-blend-mode:hard-light"
        />
        <g opacity="0.3">
          <path
            d="M57.6109 23.4727L71.288 14.4163L74.6148 30.496L90.6946 33.8229L81.6382 47.4999L90.6946 61.3618L74.6148 64.5038L71.288 80.7684L57.6109 71.5272L43.9339 80.7684L40.607 64.5038L24.3424 61.177L33.5837 47.4999L24.7121 33.8229L40.607 30.496L43.9339 14.6011L57.6109 23.4727Z"
            fill="url(#paint10_linear_2092_491)"
            style="mix-blend-mode:hard-light"
          />
        </g>
        <g opacity="0.6">
          <path
            d="M71.4274 14.1789L57.6071 34.663L43.8441 14.1404L48.5561 38.3972L24.3125 33.6176L44.7965 47.4379L24.274 61.2009L48.5308 56.4889L43.7511 80.7325L57.5714 60.2485L71.3345 80.771L66.6225 56.5142L90.8661 61.2939L70.382 47.4736L90.9046 33.7105L66.6477 38.4225L71.4274 14.1789Z"
            fill="url(#paint11_linear_2092_491)"
            style="mix-blend-mode:hard-light"
          />
        </g>
        <g opacity="0.4">
          <path
            d="M81.6382 47.4999L57.6109 23.4727L33.5837 47.4999L57.6109 71.5271L81.6382 47.4999Z"
            fill="url(#paint12_linear_2092_491)"
            style="mix-blend-mode:soft-light"
          />
        </g>
        <path
          d="M66.1128 35.6711L64.9378 36.1612L63.7604 36.6456L63.276 37.8229L62.786 38.998L63.276 40.173L63.7604 41.3504L64.9378 41.8348L66.1128 42.3248L67.2879 41.8348L68.4653 41.3504L68.9497 40.173L69.4397 38.998L68.9497 37.8229L68.4653 36.6456L67.2879 36.1612L66.1128 35.6711Z"
          fill="white"
          fill-opacity="0.59"
          style="mix-blend-mode:hard-light"
        />
        <g opacity="0.1">
          <path
            d="M73.5798 18.8521L69.4018 20.6215L65.2156 22.3708L63.4932 26.6224L61.751 30.8657L63.4932 35.1089L65.2156 39.3606L69.4018 41.1098L73.5798 42.8793L77.7578 41.1098L81.944 39.3606L83.6663 35.1089L85.4086 30.8657L83.6663 26.6224L81.944 22.3708L77.7578 20.6215L73.5798 18.8521Z"
            fill="white"
            fill-opacity="0.59"
            style="mix-blend-mode:hard-light"
          />
        </g>
        <path
          d="M63.5253 39.7373L62.8725 40.0095L62.2184 40.2786L61.9493 40.9327L61.677 41.5856L61.9493 42.2384L62.2184 42.8925L62.8725 43.1616L63.5253 43.4338L64.1781 43.1616L64.8322 42.8925L65.1013 42.2384L65.3735 41.5856L65.1013 40.9327L64.8322 40.2786L64.1781 40.0095L63.5253 39.7373Z"
          fill="white"
          fill-opacity="0.87"
          style="mix-blend-mode:hard-light"
        />
        <defs>
          <linearGradient
            id="paint0_linear_2092_491"
            x1="89.9553"
            y1="14.9708"
            x2="31.7355"
            y2="89.4553"
            gradientUnits="userSpaceOnUse"
          >
            <stop stop-color="#466CC6" />
            <stop offset="1" stop-color="#75D2F4" />
          </linearGradient>
          <linearGradient
            id="paint1_linear_2092_491"
            x1="74.4651"
            y1="0.11084"
            x2="59.5285"
            y2="49.4881"
            gradientUnits="userSpaceOnUse"
          >
            <stop offset="0.153262" stop-color="#3D46F7" />
            <stop offset="1" stop-color="#35E3FB" />
          </linearGradient>
          <linearGradient
            id="paint2_linear_2092_491"
            x1="103.088"
            y1="25.9191"
            x2="57.611"
            y2="50.2724"
            gradientUnits="userSpaceOnUse"
          >
            <stop offset="0.153262" stop-color="#2E35AC" />
            <stop offset="1" stop-color="#35D8FB" />
          </linearGradient>
          <linearGradient
            id="paint3_linear_2092_491"
            x1="54.4689"
            y1="13.1226"
            x2="35.432"
            y2="31.9747"
            gradientUnits="userSpaceOnUse"
          >
            <stop offset="0.153262" stop-color="#2251BD" />
            <stop offset="1" stop-color="#26A7F4" />
          </linearGradient>
          <linearGradient
            id="paint4_linear_2092_491"
            x1="32.1051"
            y1="27.3541"
            x2="30.4417"
            y2="50.8268"
            gradientUnits="userSpaceOnUse"
          >
            <stop offset="0.153262" stop-color="#2E35AC" />
            <stop offset="1" stop-color="#359CFB" />
          </linearGradient>
          <linearGradient
            id="paint5_linear_2092_491"
            x1="31.7281"
            y1="72.821"
            x2="60.0137"
            y2="71.5273"
            gradientUnits="userSpaceOnUse"
          >
            <stop offset="0.153262" stop-color="#5DB9ED" />
            <stop offset="1" stop-color="#1A43AF" />
          </linearGradient>
          <linearGradient
            id="paint6_linear_2092_491"
            x1="21.5204"
            y1="47.1348"
            x2="42.4362"
            y2="66.2209"
            gradientUnits="userSpaceOnUse"
          >
            <stop offset="0.153262" stop-color="#5DB9ED" />
            <stop offset="1" stop-color="#579BEB" />
          </linearGradient>
          <linearGradient
            id="paint7_linear_2092_491"
            x1="83.4864"
            y1="72.821"
            x2="52.0662"
            y2="67.6459"
            gradientUnits="userSpaceOnUse"
          >
            <stop offset="0.153262" stop-color="#2E35AC" />
            <stop offset="1" stop-color="#359CFB" />
          </linearGradient>
          <linearGradient
            id="paint8_linear_2092_491"
            x1="107.698"
            y1="48.9787"
            x2="57.5721"
            y2="44.9493"
            gradientUnits="userSpaceOnUse"
          >
            <stop offset="0.153262" stop-color="#2E35AC" />
            <stop offset="1" stop-color="#359CFB" />
          </linearGradient>
          <linearGradient
            id="paint9_linear_2092_491"
            x1="73.9719"
            y1="31.0454"
            x2="44.5222"
            y2="68.7224"
            gradientUnits="userSpaceOnUse"
          >
            <stop stop-color="#2F41B2" />
            <stop offset="1" stop-color="#89DFFF" />
          </linearGradient>
          <linearGradient
            id="paint10_linear_2092_491"
            x1="75.3898"
            y1="45.5526"
            x2="19.7112"
            y2="49.1488"
            gradientUnits="userSpaceOnUse"
          >
            <stop offset="0.153262" stop-color="#5DB9ED" />
            <stop offset="1" stop-color="#579BEB" />
          </linearGradient>
          <linearGradient
            id="paint11_linear_2092_491"
            x1="89.7253"
            y1="34.0898"
            x2="27.239"
            y2="69.3098"
            gradientUnits="userSpaceOnUse"
          >
            <stop stop-color="#2A58C6" />
            <stop offset="1" stop-color="#4FF4FF" />
          </linearGradient>
          <linearGradient
            id="paint12_linear_2092_491"
            x1="45.0429"
            y1="64.5038"
            x2="71.4728"
            y2="26.6147"
            gradientUnits="userSpaceOnUse"
          >
            <stop stop-color="#60F5FF" />
            <stop offset="1" stop-color="white" stop-opacity="0" />
          </linearGradient>
        </defs>
      </svg>