<svg width="100%" height="100%" viewBox="0 0 224 287" fill="none" xmlns="http://www.w3.org/2000/svg">
<path d="M29.7412 238.001V144.107H195.079V237.181C195.079 238.056 194.611 238.865 193.852 239.3L112.58 285.939C111.824 286.373 110.894 286.371 110.14 285.935L30.9608 240.116C30.206 239.679 29.7412 238.873 29.7412 238.001Z" fill="#84B7C4"/>
<path fill-rule="evenodd" clip-rule="evenodd" d="M77.7951 144.107V267.218L30.9608 240.116C30.206 239.679 29.7412 238.873 29.7412 238.001V144.107H77.7951Z" fill="#CC0000"/>
<path fill-rule="evenodd" clip-rule="evenodd" d="M76.167 266.275V144.107H77.7959V267.218L76.167 266.275Z" fill="#B0D2DD"/>
<path fill-rule="evenodd" clip-rule="evenodd" d="M147.025 143.293V266.404L193.859 239.302C194.614 238.865 195.079 238.059 195.079 237.187V143.293H147.025Z" fill="#CC0000"/>
<path fill-rule="evenodd" clip-rule="evenodd" d="M148.654 265.461V143.293H147.025V266.404L148.654 265.461Z" fill="#B0D2DD"/>
<g filter="url(#filter0_d_2499_597)">
<path d="M105.098 3.74696L13.5262 53.5611C8.88754 56.0844 6.00003 60.9423 6.00003 66.2229L6 180.093C6 185.373 8.88751 190.231 13.5262 192.754L105.098 242.569C109.393 244.905 114.579 244.905 118.874 242.569L210.446 192.754C215.084 190.231 217.972 185.373 217.972 180.093L217.972 66.2229C217.972 60.9423 215.084 56.0844 210.446 53.5611L118.874 3.74695C114.579 1.41064 109.393 1.41064 105.098 3.74696Z" fill="url(#paint0_linear_2499_597)"/>
<path d="M104.997 22.3872L29.6082 63.398C24.987 65.9119 22.1104 70.7515 22.1104 76.0122L22.1104 169.877C22.1104 175.137 24.987 179.977 29.6082 182.491L104.997 223.502C109.276 225.829 114.443 225.829 118.721 223.502L194.111 182.491C198.732 179.977 201.608 175.137 201.608 169.877L201.608 76.0123C201.608 70.7515 198.732 65.9119 194.111 63.3981L118.721 22.3871C114.443 20.0596 109.276 20.0596 104.997 22.3872Z" fill="url(#paint1_linear_2499_597)"/>
<g filter="url(#filter1_f_2499_597)">
<path d="M104.997 22.3872L29.6082 63.398C24.987 65.9119 22.1104 70.7515 22.1104 76.0122L22.1104 169.877C22.1104 175.137 24.987 179.977 29.6082 182.491L104.997 223.502C109.276 225.829 114.443 225.829 118.721 223.502L194.111 182.491C198.732 179.977 201.608 175.137 201.608 169.877L201.608 76.0123C201.608 70.7515 198.732 65.9119 194.111 63.3981L118.721 22.3871C114.443 20.0596 109.276 20.0596 104.997 22.3872Z" stroke="url(#paint2_linear_2499_597)" stroke-width="0.847887"/>
</g>
<g opacity="0.5">
<mask id="mask0_2499_597" style="mask-type:alpha" maskUnits="userSpaceOnUse" x="29" y="29" width="167" height="189">
<path d="M105.887 30.6779L36.8779 68.1847C32.4796 70.5752 29.7412 75.1801 29.7412 80.186L29.7412 166.033C29.7412 171.039 32.4795 175.644 36.8778 178.034L105.887 215.541C109.955 217.752 114.865 217.752 118.933 215.541L187.943 178.034C192.341 175.644 195.079 171.039 195.079 166.033L195.079 80.1861C195.079 75.1801 192.341 70.5752 187.943 68.1847L118.933 30.6779C114.865 28.4672 109.955 28.4672 105.887 30.6779Z" fill="#A6D3DE"/>
</mask>
<g mask="url(#mask0_2499_597)">
<path d="M105.887 30.6779L36.8779 68.1847C32.4796 70.5752 29.7412 75.1801 29.7412 80.186L29.7412 166.033C29.7412 171.039 32.4795 175.644 36.8778 178.034L105.887 215.541C109.955 217.752 114.865 217.752 118.933 215.541L187.943 178.034C192.341 175.644 195.079 171.039 195.079 166.033L195.079 80.1861C195.079 75.1801 192.341 70.5752 187.943 68.1847L118.933 30.6779C114.865 28.4672 109.955 28.4672 105.887 30.6779Z" fill="url(#paint3_radial_2499_597)"/>
<path opacity="0.5" d="M98.5906 222.878L95.3066 23.332H129.515L126.231 222.878H98.5906Z" fill="url(#paint4_linear_2499_597)"/>
<path opacity="0.5" d="M98.1511 221.107L-4.46582 49.9375L25.1591 32.8336L122.088 207.287L98.1511 221.107Z" fill="url(#paint5_linear_2499_597)"/>
<path opacity="0.5" d="M95.3005 207.288L192.229 32.834L221.854 49.9379L119.237 221.108L95.3005 207.288Z" fill="url(#paint6_linear_2499_597)"/>
<rect x="29.7422" y="111.703" width="165.338" height="107.375" fill="url(#paint7_linear_2499_597)"/>
<g filter="url(#filter2_i_2499_597)">
<path d="M105.887 30.6779L36.8779 68.1847C32.4796 70.5752 29.7412 75.1801 29.7412 80.186L29.7412 166.033C29.7412 171.039 32.4795 175.644 36.8778 178.034L105.887 215.541C109.955 217.752 114.865 217.752 118.933 215.541L187.943 178.034C192.341 175.644 195.079 171.039 195.079 166.033L195.079 80.1861C195.079 75.1801 192.341 70.5752 187.943 68.1847L118.933 30.6779C114.865 28.4672 109.955 28.4672 105.887 30.6779Z" fill="black" fill-opacity="0.03"/>
</g>
</g>
</g>
</g>
<defs>
<filter id="filter0_d_2499_597" x="0.912676" y="1.99414" width="222.146" height="254.197" filterUnits="userSpaceOnUse" color-interpolation-filters="sRGB">
<feFlood flood-opacity="0" result="BackgroundImageFix"/>
<feColorMatrix in="SourceAlpha" type="matrix" values="0 0 0 0 0 0 0 0 0 0 0 0 0 0 0 0 0 0 127 0" result="hardAlpha"/>
<feOffset dy="6.7831"/>
<feGaussianBlur stdDeviation="2.54366"/>
<feColorMatrix type="matrix" values="0 0 0 0 0.208958 0 0 0 0 0.389892 0 0 0 0 0.491667 0 0 0 0.54 0"/>
<feBlend mode="normal" in2="BackgroundImageFix" result="effect1_dropShadow_2499_597"/>
<feBlend mode="normal" in="SourceGraphic" in2="effect1_dropShadow_2499_597" result="shape"/>
</filter>
<filter id="filter1_f_2499_597" x="21.4322" y="19.9624" width="180.854" height="205.964" filterUnits="userSpaceOnUse" color-interpolation-filters="sRGB">
<feFlood flood-opacity="0" result="BackgroundImageFix"/>
<feBlend mode="normal" in="SourceGraphic" in2="BackgroundImageFix" result="shape"/>
<feGaussianBlur stdDeviation="0.127183" result="effect1_foregroundBlur_2499_597"/>
</filter>
<filter id="filter2_i_2499_597" x="29.7412" y="29.0195" width="165.338" height="188.18" filterUnits="userSpaceOnUse" color-interpolation-filters="sRGB">
<feFlood flood-opacity="0" result="BackgroundImageFix"/>
<feBlend mode="normal" in="SourceGraphic" in2="BackgroundImageFix" result="shape"/>
<feColorMatrix in="SourceAlpha" type="matrix" values="0 0 0 0 0 0 0 0 0 0 0 0 0 0 0 0 0 0 127 0" result="hardAlpha"/>
<feOffset/>
<feGaussianBlur stdDeviation="5.70131"/>
<feComposite in2="hardAlpha" operator="arithmetic" k2="-1" k3="1"/>
<feColorMatrix type="matrix" values="0 0 0 0 0.37849 0 0 0 0 0.586923 0 0 0 0 0.704167 0 0 0 1 0"/>
<feBlend mode="normal" in2="shape" result="effect1_innerShadow_2499_597"/>
</filter>
<linearGradient id="paint0_linear_2499_597" x1="67.4718" y1="29.6761" x2="162.859" y2="219.179" gradientUnits="userSpaceOnUse">
<stop stop-color="#D8ECF1"/>
<stop offset="1" stop-color="#82B3BF"/>
</linearGradient>
<linearGradient id="paint1_linear_2499_597" x1="66.6244" y1="45.3628" x2="148.87" y2="197.135" gradientUnits="userSpaceOnUse">
<stop stop-color="#CC0000"/>
<stop offset="1" stop-color="#D0ECF2"/>
</linearGradient>
<linearGradient id="paint2_linear_2499_597" x1="75.5273" y1="39.8515" x2="164.131" y2="199.254" gradientUnits="userSpaceOnUse">
<stop stop-color="#D0ECF2"/>
<stop offset="1" stop-color="#E6F8FC"/>
</linearGradient>
<radialGradient id="paint3_radial_2499_597" cx="0" cy="0" r="1" gradientUnits="userSpaceOnUse" gradientTransform="translate(112.41 123.11) rotate(90) scale(95.9767 82.669)">
<stop stop-color="#CC0000"/>
<stop offset="1" stop-color="#8DD3E2"/>
</radialGradient>
<linearGradient id="paint4_linear_2499_597" x1="112.411" y1="23.332" x2="112.411" y2="222.878" gradientUnits="userSpaceOnUse">
<stop stop-color="white"/>
<stop offset="1" stop-color="#F2EDED" stop-opacity="0"/>
</linearGradient>
<linearGradient id="paint5_linear_2499_597" x1="10.3466" y1="41.3855" x2="110.12" y2="214.197" gradientUnits="userSpaceOnUse">
<stop stop-color="white"/>
<stop offset="1" stop-color="#F2EDED" stop-opacity="0"/>
</linearGradient>
<linearGradient id="paint6_linear_2499_597" x1="207.042" y1="41.386" x2="107.269" y2="214.198" gradientUnits="userSpaceOnUse">
<stop stop-color="white"/>
<stop offset="1" stop-color="#F2EDED" stop-opacity="0"/>
</linearGradient>
<linearGradient id="paint7_linear_2499_597" x1="112.411" y1="158.264" x2="111.912" y2="212.425" gradientUnits="userSpaceOnUse">
<stop stop-color="#EEFFFF" stop-opacity="0"/>
<stop offset="1" stop-color="#B5EBFB"/>
</linearGradient>
</defs>
</svg>
